<svg width="600" height="400" viewBox="0 0 600 400" xmlns="http://www.w3.org/2000/svg"><defs><linearGradient id="grad1" x1="0%" y1="0%" x2="100%" y2="100%"><stop offset="0%" style="stop-color:#3B82F6;stop-opacity:1" /><stop offset="100%" style="stop-color:#1D4ED8;stop-opacity:1" /></linearGradient></defs><rect x="50" y="50" width="500" height="300" rx="20" fill="#1F2937" /><path d="M100 100 h400 v200 h-400 z" fill="#374151" /><circle cx="120" cy="80" r="10" fill="#EF4444" /><circle cx="150" cy="80" r="10" fill="#F59E0B" /><circle cx="180" cy="80" r="10" fill="#10B981" /><path d="M150 150 h300 v20 h-300 z" fill="url(#grad1)" /><path d="M150 190 h200 v20 h-200 z" fill="#4B5563" /><path d="M150 230 h250 v20 h-250 z" fill="#4B5563" /><g transform="translate(450,200)"><path d="M25,0 C25,0 25,50 0,50 C25,50 50,50 50,0 C50,50 50,50 75,50 C50,50 50,0 50,0 Z" fill="#3B82F6"><animate attributeName="d" dur="2s" repeatCount="indefinite" values="M25,0 C25,0 25,50 0,50 C25,50 50,50 50,0 C50,50 50,50 75,50 C50,50 50,0 50,0 Z;M25,0 C25,0 25,25 0,25 C25,25 50,25 50,0 C50,25 50,25 75,25 C50,25 50,0 50,0 Z;M25,0 C25,0 25,50 0,50 C25,50 50,50 50,0 C50,50 50,50 75,50 C50,50 50,0 50,0 Z" /></path></g></svg>